<svg id="Layer_1" data-name="Layer 1" xmlns="http://www.w3.org/2000/svg" viewBox="0 0 1080 1080"><defs><style>.cls-1{fill:#333;}.cls-2{fill:#565656;}.cls-3{fill:none;stroke:#999;stroke-miterlimit:10;}</style></defs><path class="cls-1" d="M539.72,795.86c-8-7.54-15.26-15.19-23.36-21.77-21.71-17.65-43.53-35.17-65.77-52.13-29.13-22.22-58.7-43.87-88.09-65.76-10.49-7.81-11.08-7.85-21.89-.63q-72.69,48.51-145.34,97.07c-.67.45-1.37.86-2.2,1.38L137.13,701.8c8.75-7.57,17.18-15.06,25.82-22.29q159-133.12,318.31-266a30.18,30.18,0,0,0,10.65-16.93c8.81-34.62,23.8-66.33,46.15-94.39.51-.64,1.08-1.23,2.39-2.72,5.69,8.14,11.41,15.77,16.56,23.78C572.61,347.5,582.88,374,589.82,402a16.3,16.3,0,0,0,4.94,8.11c52,43.44,104.32,86.61,156.36,130.06Q828,604.36,904.61,669c12.75,10.72,25.34,21.63,38.33,32.72L887.14,754,854,731.76c-26.79-18-53.54-36.1-80.4-54-13-8.68-26.29-17-39.34-25.57-4.52-3-8.45-2.84-12.77.45-50.12,38.08-100.37,76-150.37,114.22-7.91,6-14.73,13.5-22.06,20.3ZM506.28,672c-3-6.38-8.55-9.55-14.77-12a126.64,126.64,0,0,0,14,12.8c.11.09.65-.34,1-.53l13,12.5.71-.88c4.28,7,11.4,10.7,17.42,15.69-1.18-4-13.19-15.67-17-17.23-.11,0-.5.59-.76.89-4.16-4.07-8.32-8.15-12.52-12.18A9.09,9.09,0,0,0,506.28,672Zm-88.35-83.13-1.33.1c-.81,19.76-1.66,39.52-2.32,59.29a5.27,5.27,0,0,0,2.2,3.47c12.45,8.91,25,17.64,37.46,26.57,2.9,2.08,5.36,2.15,8.16.1,4.43-3.24,8.61-7,13.47-9.44,11.13-5.49,15.18-13.9,12.12-25.73-.65-2.54-1.67-5.59-3.56-7.09-10-7.95-20.46-15.4-30.61-23.21-3.5-2.69-6.45-2.56-9.83.11-8.27,6.5-16.68,12.84-25.76,19.8Zm243.41,44.06c-9.64-7.23-18.42-13.7-27.05-20.35-2.87-2.21-5.22-2.1-8,0-10.17,7.8-20.48,15.41-30.67,23.18-4,3.06-7.08,18.68-4.62,23a4.66,4.66,0,0,0,1.5,1.22c8.74,6.09,17.51,12.12,26.2,18.28,3,2.15,5.55,2,8.55-.29q17.19-12.86,34.68-25.3c2.5-1.78,3.25-3.64,3.09-6.62-.69-13.13-1.2-26.27-1.62-39.41-.19-6.11,0-12.24,0-18.36h-2ZM538.77,371.64c-14.32,3.61-23.76,13-32.94,22.69a5.86,5.86,0,0,0-1.18,3.7c-.11,11.15-.21,22.3-.08,33.45.06,4.3,6.71,8.28,10.65,6.63,6.9-2.88,13.83-5.7,20.62-8.82,1.28-.59,2.79-2.46,2.8-3.75C538.83,407.75,538.77,390,538.77,371.64Zm18.1,62c0-17.43.06-34.25-.1-51.07,0-1.68-.9-4.13-2.17-4.89-3.78-2.25-8-3.83-12.44-5.89V428ZM509,384.52a62.29,62.29,0,0,1,29.4-17.42c1.37-6.09-1.07-12.45,2.4-18,1,5,.9,10,1.09,14.95,0,1.23.79,3.25,1.65,3.51a67.84,67.84,0,0,1,26.94,16.07c-4.76-11.07-10.06-21.73-18.84-30.16-8-7.71-15.6-7.82-23.69-.13C518.88,362,513.64,373.06,509,384.52Zm56.42,54.25c8.84-2.78,9.44-3.59,9.46-12.17,0-8.13-.48-16.3.19-24.38.63-7.62-4-11.19-9.65-15.62Z"/><path class="cls-1" d="M519.83,683.26c.25-.31.64-.94.75-.9,3.86,1.56,15.87,13.25,17,17.23-6-5-13.14-8.69-17.41-15.69Z"/><path class="cls-1" d="M506.48,672.28c-.34.19-.88.62-1,.53a126.64,126.64,0,0,1-14-12.8c6.22,2.45,11.8,5.62,14.77,12Z"/><path class="cls-1" d="M506.48,672.28l-.2-.27a13,13,0,0,1,1-.94c4.2,4,8.36,8.11,12.52,12.19l.4.64-.72.88Z"/><path class="cls-2" d="M765.2,151.6S1024.77,357.05,989,491.88,994.5,326.78,765.2,151.6Z"/><path class="cls-2" d="M414.28,50.1S-108.12,427.5,48.72,596.89-72.76,641.69,414.28,50.1Z"/><polygon class="cls-3" points="570.26 80.97 686.33 214.43 540.03 233.69 521.64 65.84 570.26 80.97"/><polygon class="cls-3" points="360.26 873.43 244.69 1028.9 414.28 1004.13 401.54 899.57 360.26 873.43"/><polygon class="cls-3" points="702.83 808.77 702.83 951.17 878.79 887.19 799.14 741.36 702.83 808.77"/><rect class="cls-1" x="329.48" y="263.99" width="132.58" height="102.14" transform="translate(-67.74 112.44) rotate(-14.91)"/><rect class="cls-1" x="734.48" y="315.02" width="70.17" height="97.66" transform="translate(-73.53 481.37) rotate(-33.24)"/></svg>